<svg width="22" height="21" viewBox="0 0 22 21" fill="none" xmlns="http://www.w3.org/2000/svg">
<path d="M10.8147 14.7353C10.8367 14.7634 10.8648 14.7862 10.8969 14.8018C10.929 14.8174 10.9643 14.8256 11 14.8256C11.0357 14.8256 11.071 14.8174 11.1031 14.8018C11.1352 14.7862 11.1633 14.7634 11.1853 14.7353L14.4794 10.5676C14.6 10.4147 14.4912 10.1882 14.2941 10.1882H12.1147V0.235294C12.1147 0.105882 12.0088 0 11.8794 0H10.1147C9.98529 0 9.87941 0.105882 9.87941 0.235294V10.1853H7.70588C7.50882 10.1853 7.4 10.4118 7.52059 10.5647L10.8147 14.7353ZM21.7647 13.7059H20C19.8706 13.7059 19.7647 13.8118 19.7647 13.9412V18.4706H2.23529V13.9412C2.23529 13.8118 2.12941 13.7059 2 13.7059H0.235294C0.105882 13.7059 0 13.8118 0 13.9412V19.7647C0 20.2853 0.420588 20.7059 0.941176 20.7059H21.0588C21.5794 20.7059 22 20.2853 22 19.7647V13.9412C22 13.8118 21.8941 13.7059 21.7647 13.7059Z" fill="#00B7FE"/>
</svg>
