<svg width="22" height="24" viewBox="0 0 22 24" fill="none" xmlns="http://www.w3.org/2000/svg">
<path fill-rule="evenodd" clip-rule="evenodd" d="M9.07139 11.162C8.67035 11.162 8.35324 11.4999 8.35324 11.9273C8.35324 12.3448 8.67035 12.6926 9.07139 12.6926H14.6673V17.4437C14.6673 19.8788 12.8113 21.8667 10.517 21.8667H5.97497C3.68997 21.8667 1.83398 19.8888 1.83398 17.4536V6.41092C1.83398 3.96583 3.69929 1.98788 5.9843 1.98788H10.5357C12.8113 1.98788 14.6673 3.96583 14.6673 6.40098V11.162H9.07139ZM17.9948 8.48845L20.6715 11.3808C20.809 11.5299 20.8823 11.7188 20.8823 11.9275C20.8823 12.1263 20.809 12.3251 20.6715 12.4642L17.9948 15.3566C17.8573 15.5057 17.674 15.5852 17.4998 15.5852C17.3165 15.5852 17.1332 15.5057 16.9957 15.3566C16.7207 15.0584 16.7207 14.5714 16.9957 14.2732L18.4623 12.6928H14.6673V11.1622H18.4623L16.9957 9.58178C16.7207 9.2836 16.7207 8.79657 16.9957 8.49839C17.2707 8.19027 17.7198 8.19027 17.9948 8.48845Z" fill="#D0D2DA"/>
</svg>
