<svg width="22" height="24" viewBox="0 0 22 24" fill="none" xmlns="http://www.w3.org/2000/svg">
<path fill-rule="evenodd" clip-rule="evenodd" d="M7.15917 1.98785H14.8417C17.6733 1.98785 19.25 3.75707 19.25 6.78859V17.056C19.25 20.1372 17.6733 21.8667 14.8417 21.8667H7.15917C4.3725 21.8667 2.75 20.1372 2.75 17.056V6.78859C2.75 3.75707 4.3725 1.98785 7.15917 1.98785ZM7.40647 6.6196V6.60966H10.1464C10.5415 6.60966 10.8623 6.95754 10.8623 7.38394C10.8623 7.82227 10.5415 8.17014 10.1464 8.17014H7.40647C7.01139 8.17014 6.69147 7.82227 6.69147 7.39487C6.69147 6.96748 7.01139 6.6196 7.40647 6.6196ZM7.40647 12.6628H14.5931C14.9873 12.6628 15.3081 12.3149 15.3081 11.8875C15.3081 11.4601 14.9873 11.1112 14.5931 11.1112H7.40647C7.01139 11.1112 6.69147 11.4601 6.69147 11.8875C6.69147 12.3149 7.01139 12.6628 7.40647 12.6628ZM7.40649 17.2051H14.5932C14.9589 17.1653 15.2348 16.8264 15.2348 16.4298C15.2348 16.0223 14.9589 15.6843 14.5932 15.6446H7.40649C7.13149 15.6148 6.86566 15.7539 6.71899 16.0123C6.57232 16.2608 6.57232 16.5888 6.71899 16.8473C6.86566 17.0957 7.13149 17.2448 7.40649 17.2051Z" fill="#D0D2DA"/>
</svg>
