<svg width="22" height="22" viewBox="0 0 22 22" fill="none" xmlns="http://www.w3.org/2000/svg">
<path d="M11 3.83036C9.63482 3.83036 8.35312 4.36072 7.38817 5.32568C6.42321 6.29063 5.89286 7.57233 5.89286 8.93751V17.2857H16.1071V8.93751C16.1071 7.57233 15.5768 6.29063 14.6118 5.32568C13.6469 4.36072 12.3652 3.83036 11 3.83036ZM17.875 8.93751C17.875 5.473 15.3141 2.6076 11.9821 2.13126V2.13371C15.3141 2.61005 17.875 5.473 17.875 8.93751ZM10.0179 2.13371V2.13126C6.68594 2.6076 4.125 5.473 4.125 8.93751C4.125 5.473 6.68594 2.61005 10.0179 2.13371Z" fill="#E6E6E6"/>
<path d="M18.4643 17.2857H17.875V8.93751C17.875 5.473 15.3141 2.61006 11.9821 2.13372V1.17858C11.9821 0.635951 11.5426 0.196442 11 0.196442C10.4574 0.196442 10.0179 0.635951 10.0179 1.17858V2.13372C6.68594 2.61006 4.125 5.473 4.125 8.93751V17.2857H3.53571C3.10112 17.2857 2.75 17.6368 2.75 18.0714V18.8572C2.75 18.9652 2.83839 19.0536 2.94643 19.0536H8.25C8.25 20.571 9.48259 21.8036 11 21.8036C12.5174 21.8036 13.75 20.571 13.75 19.0536H19.0536C19.1616 19.0536 19.25 18.9652 19.25 18.8572V18.0714C19.25 17.6368 18.8989 17.2857 18.4643 17.2857ZM11 20.2322C10.3493 20.2322 9.82143 19.7043 9.82143 19.0536H12.1786C12.1786 19.7043 11.6507 20.2322 11 20.2322ZM16.1071 17.2857H5.89286V8.93751C5.89286 7.57234 6.42321 6.29064 7.38817 5.32568C8.35313 4.36073 9.63482 3.83037 11 3.83037C12.3652 3.83037 13.6469 4.36073 14.6118 5.32568C15.5768 6.29064 16.1071 7.57234 16.1071 8.93751V17.2857Z" fill="#C4C4C4"/>
</svg>
