<svg width="22" height="24" viewBox="0 0 22 24" fill="none" xmlns="http://www.w3.org/2000/svg">
<path fill-rule="evenodd" clip-rule="evenodd" d="M18.7035 13.4978C19.0313 13.6867 19.2843 13.9848 19.4623 14.283C19.8089 14.8993 19.7808 15.6547 19.4435 16.3206L18.7878 17.5133C18.4411 18.1495 17.7948 18.547 17.1296 18.547C16.8018 18.547 16.4364 18.4476 16.1366 18.2489C15.8931 18.0799 15.612 18.0202 15.3123 18.0202C14.3848 18.0202 13.6073 18.8452 13.5792 19.8292C13.5792 20.9723 12.7173 21.8668 11.64 21.8668H10.366C9.2793 21.8668 8.41745 20.9723 8.41745 19.8292C8.39871 18.8452 7.62118 18.0202 6.69375 18.0202C6.38461 18.0202 6.10357 18.0799 5.86937 18.2489C5.5696 18.4476 5.19488 18.547 4.87637 18.547C4.20188 18.547 3.55549 18.1495 3.20887 17.5133L2.56249 16.3206C2.21587 15.6745 2.19714 14.8993 2.54375 14.283C2.69364 13.9848 2.97468 13.6867 3.29319 13.4978C3.55549 13.3587 3.72411 13.1301 3.88337 12.8617C4.35176 12.0069 4.07073 10.8837 3.27445 10.3768C2.34702 9.81029 2.04725 8.54799 2.58122 7.56399L3.20887 6.39114C3.75222 5.40713 4.91384 5.05925 5.85063 5.63574C6.66565 6.11283 7.72422 5.79477 8.20199 4.94992C8.35188 4.67162 8.43619 4.37343 8.41745 4.07525C8.39871 3.68762 8.50176 3.31986 8.67975 3.02167C9.02637 2.40543 9.65402 2.00785 10.3379 1.98798H11.6588C12.352 1.98798 12.9796 2.40543 13.3263 3.02167C13.4949 3.31986 13.6073 3.68762 13.5792 4.07525C13.5605 4.37343 13.6448 4.67162 13.7946 4.94992C14.2724 5.79477 15.331 6.11283 16.1554 5.63574C17.0828 5.05925 18.2538 5.40713 18.7878 6.39114L19.4154 7.56399C19.9588 8.54799 19.659 9.81029 18.7222 10.3768C17.9259 10.8837 17.6449 12.0069 18.1226 12.8617C18.2725 13.1301 18.4411 13.3587 18.7035 13.4978ZM8.35155 11.9373C8.35155 13.4978 9.54128 14.7402 11.012 14.7402C12.4828 14.7402 13.6444 13.4978 13.6444 11.9373C13.6444 10.3768 12.4828 9.12448 11.012 9.12448C9.54128 9.12448 8.35155 10.3768 8.35155 11.9373Z" fill="#D0D2DA"/>
</svg>
