<svg width="22" height="22" viewBox="0 0 22 22" fill="none" xmlns="http://www.w3.org/2000/svg">
<path fill-rule="evenodd" clip-rule="evenodd" d="M11.2994 2.0255C11.4457 1.89411 11.6394 1.82523 11.8376 1.83407C16.0275 1.9595 19.5292 5.00113 20.1638 9.06639C20.1679 9.09066 20.1679 9.11542 20.1638 9.13969C20.1775 9.33204 20.1125 9.5218 19.9832 9.66701C19.8539 9.81221 19.6709 9.90089 19.4748 9.91342L12.4353 10.3777C12.2025 10.3983 11.9716 10.3217 11.7994 10.1667C11.6271 10.0116 11.5295 9.79253 11.5304 9.5632L11.0573 2.64852V2.5345C11.0659 2.34002 11.153 2.1569 11.2994 2.0255ZM10.817 12.1857L16.9185 11.7948L16.96 11.8111C17.222 11.8154 17.4715 11.9216 17.6537 12.1064C17.8358 12.2913 17.9357 12.5395 17.9312 12.7966C17.6908 16.3002 15.1221 19.2275 11.6265 19.9817C8.13091 20.7359 4.54748 19.1358 2.83112 16.0544C2.32643 15.1669 2.00751 14.1894 1.89307 13.1794C1.84868 12.8801 1.82925 12.5777 1.83496 12.2753C1.84653 8.5498 4.49899 5.33413 8.21038 4.5462C8.65967 4.4621 9.11013 4.68643 9.30616 5.09188C9.35495 5.16545 9.39401 5.24482 9.42237 5.32807C9.49195 6.402 9.56411 7.46575 9.63597 8.52502C9.69272 9.36162 9.74929 10.1954 9.80423 11.0292C9.8014 11.2256 9.83227 11.4211 9.89555 11.6075C10.0445 11.9742 10.4152 12.2068 10.817 12.1857Z" fill="#FD2254"/>
</svg>
