<svg width="22" height="22" viewBox="0 0 22 22" fill="none" xmlns="http://www.w3.org/2000/svg">
<path fill-rule="evenodd" clip-rule="evenodd" d="M6.91798 3.00477C7.07032 3.11473 7.31599 3.36733 7.31599 3.36733C8.26971 4.2612 9.70619 6.48444 10.1675 7.6124C10.1771 7.6124 10.4507 8.28308 10.4614 8.60208V8.64454C10.4614 9.1334 10.1879 9.59068 9.74802 9.82476C9.5667 9.92127 9.12566 10.011 8.91288 10.0543C8.84241 10.0687 8.79698 10.0779 8.79431 10.0806C8.16565 10.1764 7.2012 10.2396 6.14235 10.2396C5.03093 10.2396 4.02464 10.1764 3.40564 10.0588C3.39491 10.0588 2.82954 9.94234 2.64073 9.86722C2.36824 9.75072 2.13759 9.53733 1.99061 9.27167C1.88548 9.05936 1.83398 8.83508 1.83398 8.60208C1.84364 8.35711 2.00134 7.89983 2.07429 7.7191C2.5356 6.52691 4.04502 4.25031 4.96763 3.37821C5.06347 3.28095 5.17254 3.17905 5.24843 3.10815C5.28892 3.07032 5.31997 3.04132 5.33453 3.02654C5.56518 2.84581 5.8484 2.75 6.15307 2.75C6.42449 2.75 6.69698 2.83492 6.91798 3.00477ZM16.7111 9.31497C16.7111 9.79512 16.3281 10.1838 15.855 10.1838C15.3819 10.1838 14.9989 9.79512 14.9989 9.31497L14.7629 5.11771C14.7629 4.50581 15.2521 4.01042 15.855 4.01042C16.4579 4.01042 16.946 4.50581 16.946 5.11771L16.7111 9.31497ZM19.3612 12.1326C19.6336 12.2502 19.8643 12.4625 20.0113 12.7282C20.1164 12.9405 20.1679 13.1648 20.1679 13.3989C20.1583 13.6428 20.0005 14.1011 19.9265 14.2819C19.4663 15.473 17.9558 17.7496 17.0343 18.6229C16.94 18.7178 16.8331 18.8176 16.7574 18.8882L16.7573 18.8883L16.7573 18.8883C16.7149 18.9278 16.6824 18.9582 16.6674 18.9734C16.4356 19.1542 16.1535 19.25 15.8499 19.25C15.5763 19.25 15.3038 19.1651 15.0839 18.9941C14.9316 18.8853 14.6859 18.6327 14.6859 18.6327C13.7311 17.7399 12.2957 15.5155 11.8344 14.3875C11.8237 14.3875 11.5512 13.7179 11.5405 13.3989V13.3564C11.5405 12.8665 11.8129 12.4092 12.2539 12.1751C12.4348 12.0796 12.8745 11.9896 13.0877 11.9459C13.1589 11.9314 13.2049 11.9219 13.2076 11.9192C13.8362 11.8234 14.8007 11.7603 15.8595 11.7603C16.971 11.7603 17.9772 11.8234 18.5963 11.941C18.6059 11.941 19.1723 12.0575 19.3612 12.1326ZM6.14711 11.8163C5.67401 11.8163 5.29102 12.205 5.29102 12.6851L5.055 16.8823C5.055 17.4942 5.5442 17.9896 6.14711 17.9896C6.75002 17.9896 7.23815 17.4942 7.23815 16.8823L7.00321 12.6851C7.00321 12.205 6.62022 11.8163 6.14711 11.8163Z" fill="#551FFF"/>
</svg>
