<svg width="50" height="50" viewBox="0 0 50 50" fill="none" xmlns="http://www.w3.org/2000/svg">
<rect opacity="0.65" width="50" height="50" rx="11.2621" fill="#FFEBEF"/>
<path fill-rule="evenodd" clip-rule="evenodd" d="M25.6561 17.6267C25.7828 17.5129 25.9505 17.4533 26.1221 17.4609C29.7497 17.5695 32.7814 20.203 33.3309 23.7227C33.3344 23.7437 33.3344 23.7651 33.3309 23.7861C33.3427 23.9527 33.2865 24.117 33.1745 24.2427C33.0626 24.3684 32.9042 24.4452 32.7344 24.456L26.6395 24.858C26.438 24.8758 26.2381 24.8095 26.089 24.6753C25.9398 24.5411 25.8553 24.3514 25.8561 24.1528L25.4464 18.1661V18.0674C25.4539 17.899 25.5293 17.7404 25.6561 17.6267ZM25.238 26.4234L30.5206 26.0849L30.5566 26.099C30.7834 26.1028 30.9995 26.1947 31.1572 26.3548C31.3149 26.5148 31.4013 26.7297 31.3975 26.9523C31.1893 29.9857 28.9653 32.5202 25.9388 33.1732C22.9123 33.8261 19.8098 32.4408 18.3238 29.7729C17.8868 29.0045 17.6107 28.1582 17.5116 27.2837C17.4732 27.0246 17.4563 26.7628 17.4613 26.501C17.4713 23.2754 19.7678 20.4913 22.9811 19.8091C23.3701 19.7363 23.7601 19.9305 23.9299 20.2815C23.9721 20.3452 24.0059 20.414 24.0305 20.486C24.0907 21.4159 24.1532 22.3369 24.2154 23.2541C24.2646 23.9784 24.3135 24.7002 24.3611 25.4221C24.3586 25.5922 24.3854 25.7614 24.4402 25.9228C24.5691 26.2402 24.8901 26.4417 25.238 26.4234Z" fill="#FD2254"/>
</svg>
