<svg width="36" height="32" viewBox="0 0 36 32" fill="none" xmlns="http://www.w3.org/2000/svg">
<path d="M18.438 8.15399L18.5302 8.18149L18.5372 8.17351C18.7831 8.19781 19.0184 8.04498 19.0909 7.80047C19.6819 5.81458 21.5445 4.42676 23.6192 4.42676C23.909 4.42676 24.1441 4.19169 24.1441 3.90185C24.1441 3.612 23.909 3.37695 23.6192 3.37695C20.9963 3.37695 18.7925 5.12327 18.0848 7.50125C18.002 7.7792 18.1604 8.07119 18.438 8.15399Z" fill="#483EA8" stroke="#F9FFF9" stroke-width="0.3"/>
<path d="M28.8676 22.2721H26.6182C26.4112 22.2721 26.2433 22.1042 26.2433 21.8972C26.2433 21.6902 26.4112 21.5223 26.6182 21.5223H28.8676C31.9682 21.5223 34.4911 18.9994 34.4911 15.8988C34.4911 12.7981 31.9682 10.2753 28.8676 10.2753H28.8135C28.7047 10.2753 28.6014 10.2281 28.5301 10.1459C28.4589 10.0637 28.4268 9.95473 28.4423 9.84708C28.4758 9.61357 28.4927 9.37899 28.4927 9.15058C28.4927 6.46336 26.3062 4.27685 23.6189 4.27685C22.5735 4.27685 21.5765 4.60355 20.7356 5.22186C20.5509 5.35763 20.2884 5.29737 20.1816 5.09412C17.8002 0.559456 11.5802 -0.0495029 8.35547 3.89526C6.99702 5.55713 6.46326 7.71896 6.89096 9.82594C6.9381 10.0586 6.76001 10.2756 6.52356 10.2756H6.37333C3.27267 10.2756 0.749836 12.7984 0.749836 15.8991C0.749836 18.9997 3.27267 21.5226 6.37333 21.5226H8.6227C8.8297 21.5226 8.99761 21.6905 8.99761 21.8975C8.99761 22.1045 8.82971 22.2724 8.6227 22.2724H6.37333C2.85915 22.2724 0 19.4132 0 15.899C0 12.4834 2.70086 9.68666 6.07903 9.53241C5.76171 7.34645 6.36851 5.1415 7.7749 3.42075C11.2275 -0.803027 17.844 -0.329598 20.641 4.38022C21.5333 3.82081 22.5543 3.52735 23.6188 3.52735C26.8745 3.52735 29.4544 6.29841 29.2287 9.53591C32.5757 9.72363 35.2407 12.5056 35.2407 15.8988C35.2407 19.4132 32.3816 22.2721 28.8674 22.2721L28.8676 22.2721Z" fill="#483EA8"/>
<path d="M8.04775 21.6855C8.04775 26.9364 12.3195 31.2081 17.5704 31.2081C22.8213 31.2081 27.093 26.9363 27.093 21.6855C27.093 16.4345 22.8213 12.1629 17.5704 12.1629C12.3194 12.1629 8.04775 16.4346 8.04775 21.6855ZM9.09773 21.6855C9.09773 17.0139 12.8987 13.2128 17.5704 13.2128C22.242 13.2128 26.043 17.0138 26.043 21.6855C26.043 26.3571 22.242 30.1581 17.5704 30.1581C12.8988 30.1581 9.09773 26.3571 9.09773 21.6855Z" fill="#483EA8" stroke="#F9FFF9" stroke-width="0.3"/>
<path d="M17.3173 25.4585C17.3173 25.6929 17.5074 25.883 17.7418 25.883C17.9761 25.883 18.1662 25.6932 18.1662 25.4585V18.3223C18.1662 18.0879 17.9761 17.8978 17.7418 17.8978C17.5074 17.8978 17.3173 18.0879 17.3173 18.3223V25.4585Z" fill="#483EA8" stroke="#483EA8" stroke-width="0.3"/>
<path d="M20.1316 20.7128L20.2378 20.8186C20.1548 20.902 20.0456 20.9431 19.9375 20.9432L20.1316 20.7128ZM20.1316 20.7128C20.078 20.7665 20.0077 20.7931 19.9375 20.7932L20.1316 20.7128ZM20.1316 20.7128L20.2376 20.8188C20.4034 20.653 20.4034 20.3843 20.2376 20.2185L18.0419 18.0228C17.8762 17.8571 17.6073 17.8569 17.4416 18.0228M20.1316 20.7128L17.4416 18.0228M17.7417 18.9232L15.8463 20.8187C15.8462 20.8188 15.8462 20.8188 15.8462 20.8188L17.7417 18.9232ZM17.7417 18.9232L19.6373 20.8188C19.7201 20.9016 19.8291 20.9431 19.9375 20.9432L17.7417 18.9232ZM17.4416 18.0228C17.4416 18.0228 17.4416 18.0228 17.4415 18.0228M17.4416 18.0228L17.4415 18.0228M17.4415 18.0228C17.4415 18.0229 17.4415 18.0229 17.4415 18.0229L17.4415 18.0228Z" fill="#483EA8" stroke="#483EA8" stroke-width="0.3"/>
</svg>
